<?xml version="1.0" encoding="utf-8"?>
<!-- Generator: Adobe Illustrator 23.1.0, SVG Export Plug-In . SVG Version: 6.00 Build 0)  -->
<svg version="1.1" id="Capa_1" xmlns="http://www.w3.org/2000/svg" xmlns:xlink="http://www.w3.org/1999/xlink" x="0px" y="0px"
	 viewBox="0 0 742.21 122.55" style="enable-background:new 0 0 742.21 122.55;" xml:space="preserve">
<style type="text/css">
	.st0{fill:none;stroke:#277ABC;stroke-width:4;}
	.st1{fill:#277ABC;}
</style>
<g>
	<path class="st0" d="M9.23,62.17c0-1.68,0.08-3.36,0.25-5.04s0.41-3.34,0.74-4.99c0.33-1.65,0.74-3.28,1.23-4.9
		c0.49-1.61,1.06-3.2,1.7-4.75s1.36-3.08,2.16-4.56c0.79-1.49,1.66-2.93,2.59-4.33c0.94-1.4,1.94-2.75,3.01-4.05
		c1.07-1.3,2.2-2.55,3.39-3.74c1.19-1.19,2.44-2.32,3.74-3.39c1.3-1.07,2.65-2.07,4.05-3.01c1.4-0.94,2.84-1.8,4.33-2.59
		c1.49-0.79,3.01-1.51,4.56-2.16c1.56-0.64,3.14-1.21,4.75-1.7c1.61-0.49,3.24-0.9,4.9-1.23c1.65-0.33,3.32-0.58,4.99-0.74
		c1.68-0.17,3.36-0.25,5.04-0.25h613.43c1.68,0,3.36,0.08,5.04,0.25c1.68,0.17,3.34,0.41,4.99,0.74c1.65,0.33,3.28,0.74,4.9,1.23
		c1.61,0.49,3.2,1.06,4.75,1.7c1.56,0.64,3.08,1.36,4.56,2.16c1.49,0.79,2.93,1.66,4.33,2.59c1.4,0.94,2.75,1.94,4.05,3.01
		s2.55,2.2,3.74,3.39c1.19,1.19,2.32,2.44,3.39,3.74c1.07,1.3,2.07,2.65,3.01,4.05c0.94,1.4,1.8,2.84,2.59,4.33
		c0.79,1.49,1.51,3.01,2.16,4.56c0.64,1.56,1.21,3.14,1.7,4.75c0.49,1.61,0.9,3.24,1.23,4.9c0.33,1.65,0.58,3.32,0.74,4.99
		c0.17,1.68,0.25,3.36,0.25,5.04c0,1.68-0.08,3.36-0.25,5.04c-0.17,1.68-0.41,3.34-0.74,4.99c-0.33,1.65-0.74,3.28-1.23,4.9
		c-0.49,1.61-1.06,3.2-1.7,4.75c-0.64,1.56-1.36,3.08-2.16,4.56c-0.79,1.49-1.66,2.93-2.59,4.33c-0.94,1.4-1.94,2.75-3.01,4.05
		c-1.07,1.3-2.2,2.55-3.39,3.74c-1.19,1.19-2.44,2.32-3.74,3.39c-1.3,1.07-2.65,2.07-4.05,3.01c-1.4,0.94-2.84,1.8-4.33,2.59
		c-1.49,0.79-3.01,1.51-4.56,2.16c-1.56,0.64-3.14,1.21-4.75,1.7c-1.61,0.49-3.24,0.9-4.9,1.23c-1.65,0.33-3.32,0.58-4.99,0.74
		s-3.36,0.25-5.04,0.25H60.66c-1.68,0-3.36-0.08-5.04-0.25c-1.68-0.17-3.34-0.41-4.99-0.74c-1.65-0.33-3.28-0.74-4.9-1.23
		c-1.61-0.49-3.2-1.06-4.75-1.7c-1.56-0.64-3.08-1.36-4.56-2.16c-1.49-0.79-2.93-1.66-4.33-2.59c-1.4-0.94-2.75-1.94-4.05-3.01
		c-1.3-1.07-2.55-2.2-3.74-3.39s-2.32-2.44-3.39-3.74c-1.07-1.3-2.07-2.65-3.01-4.05c-0.94-1.4-1.8-2.84-2.59-4.33
		c-0.79-1.49-1.51-3.01-2.16-4.56s-1.21-3.14-1.7-4.75c-0.49-1.61-0.9-3.24-1.23-4.9c-0.33-1.65-0.58-3.32-0.74-4.99
		C9.32,65.53,9.23,63.85,9.23,62.17z"/>
	<path class="st1" d="M100.15,68.69c0-2.75,0-4.87,0.09-7.07h-8.63c0.09,0.55,0.28,3.67,0.28,6.34v15.34
		c-2.2,0.73-5.97,1.38-9.83,1.38c-18.18,0-27-10.65-27-20.2c0-14.6,17.26-28.74,38.2-32.78l-1.84-7.99
		C56.71,33.06,45.97,54,45.97,64.37c0,15.15,13.32,26.81,34.16,26.81c7.62,0,16.16-1.38,20.29-2.94c0-1.19-0.28-9.37-0.28-12.86
		V68.69z"/>
	<path class="st1" d="M128.71,66.85c0.73-1.29,9.83-19.74,11.02-21.58c0.83,1.29,10.47,18.92,11.39,20.66L128.71,66.85z
		 M116.77,91.37c1.29-2.66,7.71-16.25,8.82-18.73l28.38-1.1c0.83,1.38,9.46,16.8,10.93,19.74l7.44-4.5
		c-5.42-8.17-25.25-43.34-32.32-54.46h-0.18c-1.84,3.03-25.71,47.2-30.12,55.01L116.77,91.37z"/>
	<path class="st1" d="M199.6,89.72c-0.18-1.56-1.01-20.11-1.01-36V41.6c6.7,0,22.13,0.37,22.31,0.73V34.9
		c-2.66,0.64-20.85,0.92-22.41,0.92h-7.35c-0.92,0-20.66-0.28-23.05-0.92v7.44c1.19-0.37,13.04-0.73,22.5-0.73v10.93
		c0,12.4-0.09,35.17-0.55,37.19H199.6z"/>
	<path class="st1" d="M251.57,84.94c-12.76,0-20.57-9.27-20.57-20.94c0-13.32,8.72-24.15,23.32-24.15
		c10.93,0,20.66,6.98,20.66,20.94C274.99,76.22,264.15,84.94,251.57,84.94z M250.84,91c24.06,0,32.69-18.37,32.69-30.58
		c0-16.81-11.85-26.63-28.01-26.63c-20.2,0-32.97,14.05-32.97,31.41C222.56,78.97,232.56,91,250.84,91z"/>
	<path class="st1" d="M344.78,82.92c-3.12,0.73-6.98,1.29-10.65,1.29c-21.95,0-30.76-10.56-30.76-21.76
		c0-15.79,17.36-28.38,38.39-30.76l-1.38-7.71c-32.42,5.79-46.28,24.98-46.28,40.04c0,8.45,7.81,27.18,39.12,27.18
		c5.51,0,9.73-0.37,12.49-0.92L344.78,82.92z"/>
	<path class="st1" d="M381.24,84.94c-12.76,0-20.57-9.27-20.57-20.94c0-13.32,8.72-24.15,23.32-24.15
		c10.93,0,20.66,6.98,20.66,20.94C404.66,76.22,393.82,84.94,381.24,84.94z M380.5,91c24.06,0,32.69-18.37,32.69-30.58
		c0-16.81-11.85-26.63-28.01-26.63c-20.2,0-32.97,14.05-32.97,31.41C352.22,78.97,362.23,91,380.5,91z"/>
	<path class="st1" d="M430,91.19c16.35-3.31,25.62-11.48,25.62-19.56c0-6.52-5.51-9-11.85-12.49c-3.58-2.02-9.55-4.13-9.55-8.36
		c0-6.8,12.49-9.92,17.91-10.74l-1.74-6.43c-11.85,2.11-24.61,9.73-24.61,18.46c0,5.69,5.23,9,12.4,12.49
		c6.06,2.94,8.91,4.87,8.91,8.91c0,6.24-10.74,9.64-19.19,11.3L430,91.19z"/>
	<path class="st1" d="M472.15,91.74c0.83-3.03,11.02-36.18,12.49-41.05c3.67,7.07,13.41,25.35,18.09,34.07h0.18
		c3.58-5.69,18.09-29.57,20.75-33.89c1.1,3.03,12.49,34.99,14.42,40.86l7.62-2.85c-3.4-8.26-17.82-46.37-20.29-52.71h-0.28
		c-1.47,2.39-18.64,31.13-21.3,35.54c-2.48-4.5-17.54-32.97-20.02-37.93h-0.37c-0.46,1.93-17.45,52.25-18.83,55.56L472.15,91.74z"/>
	<path class="st1" d="M568.3,57.67c0-9.37,0.28-21.21,0.46-22.59h-8.91c0.18,1.84,0.46,21.12,0.46,22.5v8.45
		c0,2.02-0.09,20.29-0.28,23.69h8.63c-0.09-1.84-0.37-15.8-0.37-23.6V57.67z"/>
	<path class="st1" d="M629.92,83.47c-1.93,0.46-5.42,0.92-8.82,0.92c-19.93,0-27.73-8.63-27.73-17.82
		c0-13.59,15.61-23.69,33.79-25.9l-1.29-6.98c-28.56,5.05-41.05,20.94-41.05,34.16c0,7.53,6.98,23.14,35.45,23.14
		c5.05,0,8.91-0.37,10.47-0.64L629.92,83.47z"/>
	<path class="st1" d="M666,84.94c-12.76,0-20.57-9.27-20.57-20.94c0-13.32,8.72-24.15,23.32-24.15c10.93,0,20.66,6.98,20.66,20.94
		C689.42,76.22,678.59,84.94,666,84.94z M665.27,91c24.06,0,32.69-18.37,32.69-30.58c0-16.81-11.85-26.63-28.01-26.63
		c-20.2,0-32.97,14.05-32.97,31.41C636.99,78.97,647,91,665.27,91z"/>
</g>
</svg>
